<?xml version="1.0" encoding="utf-8"?>
<svg width="800px" height="800px" viewBox="0 0 24 24" fill="none" xmlns="http://www.w3.org/2000/svg">
  <g id="SVGRepo_bgCarrier" stroke-width="0"/>
  <g id="SVGRepo_tracerCarrier" stroke-linecap="round" stroke-linejoin="round"/>
  <g id="SVGRepo_iconCarrier">
    <path d="M 8 6 L 19 6 C 19.552 6 20 6.448 20 7 L 20 17 C 20 17.552 19.552 18 19 18 L 8 18 M 16 9 L 13 12 M 13 12 L 10 15 M 13 12 L 10 9 M 13 12 L 16 15" stroke="#ff0000" stroke-width="1.5" stroke-linecap="round" stroke-linejoin="round"/>
  </g>
  <path d="M 6.076 5.999 L 17.076 5.999 C 17.628 5.999 18.076 6.447 18.076 6.999 L 18.076 16.999 C 18.076 17.551 17.628 17.999 17.076 17.999 L 6.076 17.999" stroke="#ff0000" stroke-width="1.5" stroke-linecap="round" stroke-linejoin="round" transform="matrix(-1, 0, 0, -1, 24.152001, 23.998001)"/>
</svg>